<svg width="28" height="28" viewBox="0 0 28 28" fill="none" xmlns="http://www.w3.org/2000/svg">
<path d="M9.99219 6.67578V10.7041C9.99219 11.4202 9.86361 12.0355 9.60645 12.5498C9.35254 13.0641 8.98633 13.4596 8.50781 13.7363C8.03255 14.0098 7.46126 14.1465 6.79395 14.1465C6.12988 14.1465 5.55859 14.0098 5.08008 13.7363C4.60156 13.4596 4.23372 13.0641 3.97656 12.5498C3.72266 12.0355 3.5957 11.4202 3.5957 10.7041V6.67578H5.09961V10.5186C5.09961 11.0296 5.16309 11.4561 5.29004 11.7979C5.42025 12.1396 5.61068 12.3984 5.86133 12.5742C6.11198 12.7467 6.42285 12.833 6.79395 12.833C7.16504 12.833 7.47591 12.7467 7.72656 12.5742C7.97721 12.3984 8.16602 12.1396 8.29297 11.7979C8.42318 11.4561 8.48828 11.0296 8.48828 10.5186V6.67578H9.99219ZM17.3709 14H15.4812L13.5965 11.3535L11.7068 14H9.92461L12.7273 10.2402L10.1443 6.67578H12.034L13.699 9.01953L15.325 6.67578H17.1658L14.573 10.2012L17.3709 14Z" fill="#FF651D"/>
<path d="M21.9922 13.3999V17.4282C21.9922 18.1444 21.8636 18.7596 21.6064 19.2739C21.3525 19.7882 20.9863 20.1838 20.5078 20.4604C20.0326 20.7339 19.4613 20.8706 18.7939 20.8706C18.1299 20.8706 17.5586 20.7339 17.0801 20.4604C16.6016 20.1838 16.2337 19.7882 15.9766 19.2739C15.7227 18.7596 15.5957 18.1444 15.5957 17.4282V13.3999H17.0996V17.2427C17.0996 17.7537 17.1631 18.1802 17.29 18.522C17.4202 18.8638 17.6107 19.1226 17.8613 19.2983C18.112 19.4709 18.4229 19.5571 18.7939 19.5571C19.165 19.5571 19.4759 19.4709 19.7266 19.2983C19.9772 19.1226 20.166 18.8638 20.293 18.522C20.4232 18.1802 20.4883 17.7537 20.4883 17.2427V13.3999H21.9922ZM22.3836 20.7241V13.3999H23.8875V20.7241H22.3836Z" fill="#FF651D"/>
<rect x="0.75" y="0.75" width="26.5" height="26.5" stroke="#FF651D" stroke-width="1.5"/>
</svg>
