<svg width="56" height="56" viewBox="0 0 56 56" fill="none" xmlns="http://www.w3.org/2000/svg">
<rect x="1.5" y="1.5" width="53" height="53" fill="white" stroke="#393736" stroke-width="3"/>
<path d="M28.0001 15.5C25.953 15.4994 23.9371 16.0016 22.1295 16.9624C20.3219 17.9232 18.778 19.3133 17.6333 21.0104C16.4887 22.7076 15.7784 24.6599 15.5648 26.6958C15.3512 28.7317 15.6409 30.7889 16.4084 32.6866C16.4496 32.7881 16.4703 32.8966 16.4695 33.0061C16.4687 33.1156 16.4463 33.2238 16.4037 33.3247C16.3611 33.4255 16.299 33.5169 16.221 33.5938C16.143 33.6706 16.0507 33.7313 15.9492 33.7725C15.8478 33.8136 15.7392 33.8344 15.6298 33.8336C15.5203 33.8328 15.4121 33.8104 15.3112 33.7678C15.2104 33.7251 15.119 33.6631 15.0421 33.5851C14.9653 33.5071 14.9046 33.4148 14.8634 33.3133C13.6387 30.2843 13.4986 26.9251 14.4668 23.8046C15.4351 20.6841 17.4522 17.9942 20.1765 16.1906C22.9007 14.3869 26.1647 13.5803 29.4155 13.9075C32.6663 14.2346 35.7042 15.6753 38.0145 17.9856C40.3247 20.2959 41.7655 23.3337 42.0926 26.5845C42.4197 29.8354 41.6131 33.0993 39.8095 35.8236C38.0058 38.5479 35.3159 40.5649 32.1955 41.5332C29.075 42.5015 25.7157 42.3614 22.6867 41.1366C22.4833 41.0527 22.3213 40.8918 22.2361 40.6889C22.1509 40.4861 22.1494 40.2577 22.232 40.0538C22.3145 39.8498 22.4743 39.6867 22.6766 39.6001C22.8789 39.5136 23.1072 39.5105 23.3117 39.5916C25.0209 40.2814 26.8614 40.5846 28.7014 40.4797C30.5415 40.3748 32.3356 39.8642 33.9552 38.9846C35.5748 38.1051 36.9799 36.8782 38.0698 35.392C39.1597 33.9057 39.9074 32.1968 40.2595 30.3877C40.6116 28.5786 40.5592 26.714 40.1062 24.9275C39.6532 23.141 38.8107 21.4768 37.6391 20.054C36.4676 18.6313 34.9959 17.4852 33.3294 16.6979C31.663 15.9106 29.8431 15.5015 28.0001 15.5Z" fill="#393736"/>
<path d="M18.8333 28C18.8333 30.2317 19.63 32.2767 20.955 33.8667L20.155 34.6667H17.6166C16.9538 34.6672 16.3184 34.931 15.85 35.4L13.12 38.1283C12.9454 38.3031 12.8265 38.5258 12.7784 38.7681C12.7302 39.0104 12.755 39.2616 12.8495 39.4899C12.944 39.7181 13.104 39.9133 13.3094 40.0506C13.5148 40.188 13.7562 40.2614 14.0033 40.2617H15.7366V41.995C15.7368 42.2421 15.8103 42.4835 15.9476 42.6889C16.085 42.8942 16.2802 43.0543 16.5084 43.1488C16.7367 43.2433 16.9879 43.2681 17.2302 43.2199C17.4725 43.1718 17.6952 43.0529 17.87 42.8783L20.5983 40.1483C21.0675 39.6806 21.3318 39.0458 21.3333 38.3833V35.8467L22.1333 35.0467C23.7353 36.381 25.7442 37.1293 27.8287 37.1683C29.9132 37.2072 31.9487 36.5344 33.5994 35.2609C35.2501 33.9873 36.4174 32.1891 36.9086 30.163C37.3998 28.1368 37.1856 26.0037 36.3014 24.1156C35.4172 22.2275 33.9158 20.6972 32.0449 19.7773C30.174 18.8573 28.0453 18.6026 26.0102 19.0551C23.975 19.5077 22.1549 20.6405 20.8502 22.2666C19.5455 23.8928 18.834 25.9151 18.8333 28ZM28 20.5C29.1979 20.5004 30.3783 20.7877 31.4424 21.338C32.5065 21.8882 33.4234 22.6854 34.1161 23.6627C34.8089 24.64 35.2575 25.7691 35.4244 26.9553C35.5912 28.1416 35.4715 29.3506 35.0752 30.4811C34.6789 31.6116 34.0176 32.6307 33.1466 33.4532C32.2756 34.2756 31.2202 34.8774 30.0688 35.2083C28.9175 35.5391 27.7036 35.5894 26.5289 35.3548C25.3541 35.1202 24.2526 34.6077 23.3166 33.86L26.305 30.8717C27.0038 31.2837 27.829 31.4268 28.6258 31.274C29.4226 31.1212 30.1363 30.683 30.6332 30.0416C31.13 29.4002 31.3759 28.5996 31.3247 27.7899C31.2735 26.9802 30.9287 26.217 30.355 25.6433C29.7813 25.0696 29.0181 24.7248 28.2084 24.6736C27.3987 24.6224 26.5981 24.8683 25.9567 25.3651C25.3153 25.8619 24.8771 26.5757 24.7243 27.3725C24.5715 28.1693 24.7146 28.9944 25.1266 29.6933L22.14 32.6817C21.2583 31.5782 20.7061 30.2482 20.547 28.8448C20.3879 27.4414 20.6284 26.0215 21.2407 24.7487C21.8529 23.4759 22.8122 22.4019 24.008 21.6502C25.2038 20.8986 26.5875 20.4999 28 20.5ZM17.0283 36.5767C17.1058 36.4993 17.1978 36.438 17.2991 36.3963C17.4003 36.3545 17.5088 36.3331 17.6183 36.3333H19.6666V38.3817C19.6661 38.6025 19.578 38.8141 19.4216 38.97L17.405 40.9867V39.4283C17.405 39.2073 17.3172 38.9954 17.1609 38.8391C17.0046 38.6828 16.7926 38.595 16.5716 38.595H15.0116L17.0283 36.5767Z" fill="#393736"/>
</svg>
