<svg width="56" height="56" viewBox="0 0 56 56" fill="none" xmlns="http://www.w3.org/2000/svg">
<rect x="1.5" y="1.5" width="53" height="53" fill="white" stroke="#393736" stroke-width="3"/>
<g clip-path="url(#clip0_76_9)">
<path d="M28 27.7571C30.4893 27.7571 32.5186 25.5393 32.5186 22.8407C32.5186 20.1729 30.5 18.06 28 18.06C25.5214 18.06 23.4814 20.2043 23.4814 22.8614C23.4914 25.55 25.5207 27.7571 28 27.7571ZM15.95 27.9864C18.1043 27.9864 19.8721 26.0507 19.8721 23.6764C19.8721 21.355 18.1257 19.4821 15.95 19.4821C13.795 19.4821 12.0164 21.3857 12.0271 23.6971C12.0379 26.0614 13.795 27.9864 15.95 27.9864ZM40.0607 27.9864C42.205 27.9864 43.9729 26.0614 43.9729 23.6971C43.9836 21.3857 42.205 19.4821 40.0607 19.4821C37.875 19.4821 36.1279 21.3543 36.1279 23.6764C36.1279 26.0507 37.8957 27.9864 40.0607 27.9864ZM28 26.1771C26.4729 26.1771 25.165 24.7129 25.165 22.8614C25.165 21.0414 26.4521 19.64 28.0007 19.64C29.5586 19.64 30.835 21.0207 30.835 22.84C30.835 24.6921 29.5479 26.1771 28 26.1771ZM15.95 26.4286C14.6736 26.4286 13.5857 25.2043 13.5857 23.6979C13.5857 22.2236 14.6629 21.0407 15.95 21.0407C17.2679 21.0407 18.3243 22.2021 18.3243 23.6771C18.3243 25.2043 17.2364 26.4286 15.95 26.4286ZM40.0607 26.4286C38.7636 26.4286 37.6757 25.2043 37.6757 23.6771C37.6757 22.2021 38.7321 21.0414 40.0607 21.0414C41.3471 21.0414 42.4143 22.2236 42.4143 23.6986C42.4143 25.2043 41.3364 26.4286 40.0607 26.4286ZM10.1336 37.5786H18.345C17.8429 37.2964 17.4557 36.6686 17.5293 36.0307H9.87214C9.66286 36.0307 9.55857 35.9471 9.55857 35.7486C9.55857 33.1543 12.5186 30.7271 15.9393 30.7271C17.2571 30.7271 18.4393 31.0414 19.4536 31.6371C19.7899 31.2105 20.1884 30.8369 20.6357 30.5286C19.2864 29.6393 17.665 29.1793 15.9393 29.1793C11.5564 29.1793 8 32.3593 8 35.8429C8 37.0036 8.71143 37.5786 10.1336 37.5786ZM45.8764 37.5786C47.2886 37.5786 48 37.0036 48 35.8429C48 32.3593 44.4429 29.1793 40.0607 29.1793C38.335 29.1793 36.7236 29.6393 35.3643 30.5293C35.835 30.8529 36.2214 31.2193 36.5571 31.6371C37.5607 31.0414 38.7529 30.7271 40.0607 30.7271C43.4814 30.7271 46.4414 33.1543 46.4414 35.7486C46.4414 35.9471 46.3471 36.0307 46.1379 36.0307H38.4807C38.5436 36.6686 38.1671 37.2964 37.665 37.5786H45.8764ZM21.4307 37.5786H34.5693C36.305 37.5786 37.1321 37.0557 37.1321 35.905C37.1321 33.1643 33.6693 29.2 28 29.2C22.32 29.2 18.8571 33.1643 18.8571 35.905C18.8571 37.0557 19.6843 37.5786 21.4307 37.5786ZM20.9286 36C20.6571 36 20.5421 35.9264 20.5421 35.7071C20.5421 33.9907 23.1993 30.78 28 30.78C32.7907 30.78 35.4479 33.9907 35.4479 35.7064C35.4479 35.9264 35.3429 35.9993 35.0714 35.9993L20.9286 36Z" fill="#393736"/>
</g>
<defs>
<clipPath id="clip0_76_9">
<rect width="40" height="40" fill="white" transform="translate(8 8)"/>
</clipPath>
</defs>
</svg>
