<svg width="56" height="56" viewBox="0 0 56 56" fill="none" xmlns="http://www.w3.org/2000/svg">
<rect x="1.5" y="1.5" width="53" height="53" fill="white" stroke="#393736" stroke-width="3"/>
<path d="M17.6122 39.97C22.2493 44.6071 28.2765 45.9964 31.2393 46.2814C32.11 46.3814 32.5957 45.8457 32.6622 45.2935C32.7293 44.7078 32.3607 44.0714 31.5243 43.9543C28.8457 43.5857 23.3043 42.3807 19.2865 38.3128C12.7236 31.7335 11.485 21.7893 16.8422 16.4321C21.195 12.0964 28.4436 12.6485 33.7843 15.5278L35.525 13.8371C29.0293 9.93639 20.2907 9.61854 15.1679 14.7578C9.07431 20.8685 9.87788 32.2357 17.6122 39.97ZM42.155 16.2478L43.4936 14.9085C44.1293 14.2728 44.1636 13.335 43.5107 12.7321L43.075 12.3307C42.5065 11.795 41.6186 11.8114 40.9993 12.3971L39.6772 13.7535L42.155 16.2478ZM25.8993 32.4693L40.9322 17.4528L38.4379 14.9757L23.4215 29.9757L22.0322 33.1728C21.8979 33.5243 22.2493 33.8764 22.6179 33.7585L25.8993 32.4693ZM23.7065 34.9643C29.18 40.4385 37.9857 42.5985 42.9079 37.6928C46.9257 33.6585 46.4065 26.4928 42.1043 20.3328L40.3972 22.04C43.8115 27.0957 44.4815 32.7714 41.2336 36.0185C37.2836 39.97 30.7536 38.095 26.2672 33.8592L23.7065 34.9643Z" fill="#393736"/>
</svg>
