<svg width="56" height="56" viewBox="0 0 56 56" fill="none" xmlns="http://www.w3.org/2000/svg">
<rect x="1.5" y="1.5" width="53" height="53" fill="white" stroke="#393736" stroke-width="3"/>
<path d="M36.5266 40.66V15.3083C37.1866 15.415 37.7361 15.72 38.175 16.2233C38.6139 16.7266 38.8333 17.3189 38.8333 18V37.9666C38.8333 38.6489 38.6139 39.2416 38.175 39.745C37.735 40.2483 37.185 40.5539 36.525 40.6616M17.5533 43.3833C16.8078 43.3833 16.1728 43.1211 15.6483 42.5966C15.1228 42.0711 14.86 41.4355 14.86 40.69V15.31C14.86 14.5633 15.1228 13.9277 15.6483 13.4033C16.1728 12.8789 16.8078 12.6166 17.5533 12.6166H32.1667C32.9122 12.6166 33.5472 12.8789 34.0717 13.4033C34.5961 13.9289 34.8583 14.5644 34.8583 15.31V40.6933C34.8583 41.44 34.5961 42.0755 34.0717 42.6C33.5472 43.1244 32.9122 43.3866 32.1667 43.3866L17.5533 43.3833ZM40.5 37.9666V18C40.9378 18.1066 41.2933 18.3283 41.5666 18.665C41.8389 19.0016 41.975 19.4 41.975 19.86V36.11C41.975 36.5689 41.8383 36.9666 41.565 37.3033C41.2928 37.6389 40.9378 37.8605 40.5 37.9683M17.55 41.7166H32.1667C32.4222 41.7166 32.6572 41.6094 32.8717 41.395C33.0861 41.1805 33.1928 40.9455 33.1917 40.69V15.3083C33.1917 15.0516 33.085 14.8161 32.8717 14.6016C32.6583 14.3872 32.4233 14.2811 32.1667 14.2833H17.55C17.2944 14.2833 17.06 14.3905 16.8467 14.605C16.6333 14.8194 16.5267 15.0544 16.5267 15.31V40.6933C16.5267 40.95 16.6333 41.1855 16.8467 41.4C17.06 41.6144 17.295 41.7211 17.5517 41.72" fill="#393736"/>
</svg>
