<svg width="56" height="56" viewBox="0 0 56 56" fill="none" xmlns="http://www.w3.org/2000/svg">
<rect x="1.5" y="1.5" width="53" height="53" fill="white" stroke="#393736" stroke-width="3"/>
<path d="M27.0075 41.1675L26.47 42.935C19.5475 42.3225 15.5 37.6 15.5 33V31.75C15.5 30.7554 15.8951 29.8016 16.5983 29.0983C17.3016 28.3951 18.2554 28 19.25 28H30.6C29.625 28.6875 28.7675 29.5325 28.07 30.5H19.25C18.9185 30.5 18.6005 30.6317 18.3661 30.8661C18.1317 31.1005 18 31.4185 18 31.75V33C18 36.345 21.1025 39.9625 26.71 40.445C26.8 40.69 26.8992 40.9292 27.0075 41.1675ZM28 11.75C29.8234 11.75 31.572 12.4743 32.8614 13.7636C34.1507 15.053 34.875 16.8016 34.875 18.625C34.875 20.4484 34.1507 22.197 32.8614 23.4864C31.572 24.7757 29.8234 25.5 28 25.5C26.1766 25.5 24.428 24.7757 23.1386 23.4864C21.8493 22.197 21.125 20.4484 21.125 18.625C21.125 16.8016 21.8493 15.053 23.1386 13.7636C24.428 12.4743 26.1766 11.75 28 11.75ZM28 14.25C26.8397 14.25 25.7269 14.7109 24.9064 15.5314C24.0859 16.3519 23.625 17.4647 23.625 18.625C23.625 19.7853 24.0859 20.8981 24.9064 21.7186C25.7269 22.5391 26.8397 23 28 23C29.1603 23 30.2731 22.5391 31.0936 21.7186C31.9141 20.8981 32.375 19.7853 32.375 18.625C32.375 17.4647 31.9141 16.3519 31.0936 15.5314C30.2731 14.7109 29.1603 14.25 28 14.25ZM45.5 36.75C45.5004 38.2732 45.1032 39.7702 44.3475 41.0928C43.5919 42.4154 42.5041 43.5179 41.1917 44.2911C39.8794 45.0643 38.3879 45.4816 36.8648 45.5016C35.3417 45.5215 33.8397 45.1436 32.5075 44.405L29.0275 45.4625C28.8896 45.5046 28.7428 45.5084 28.6029 45.4735C28.463 45.4386 28.3352 45.3663 28.2332 45.2643C28.1312 45.1623 28.0589 45.0345 28.024 44.8946C27.9891 44.7547 27.9929 44.6079 28.035 44.47L29.095 40.9925C28.4482 39.8243 28.0773 38.5235 28.0109 37.1898C27.9444 35.8561 28.184 34.5249 28.7114 33.2982C29.2389 32.0714 30.0401 30.9816 31.0537 30.1123C32.0673 29.243 33.2664 28.6172 34.5592 28.2829C35.852 27.9485 37.2042 27.9145 38.5122 28.1835C39.8202 28.4524 41.0492 29.0171 42.1053 29.8344C43.1613 30.6516 44.0163 31.6998 44.6047 32.8985C45.1931 34.0972 45.4994 35.4147 45.5 36.75ZM34.25 33C33.9185 33 33.6005 33.1317 33.3661 33.3661C33.1317 33.6005 33 33.9185 33 34.25C33 34.5815 33.1317 34.8995 33.3661 35.1339C33.6005 35.3683 33.9185 35.5 34.25 35.5H39.25C39.5815 35.5 39.8995 35.3683 40.1339 35.1339C40.3683 34.8995 40.5 34.5815 40.5 34.25C40.5 33.9185 40.3683 33.6005 40.1339 33.3661C39.8995 33.1317 39.5815 33 39.25 33H34.25ZM33 39.25C33 39.5815 33.1317 39.8995 33.3661 40.1339C33.6005 40.3683 33.9185 40.5 34.25 40.5H36.75C37.0815 40.5 37.3995 40.3683 37.6339 40.1339C37.8683 39.8995 38 39.5815 38 39.25C38 38.9185 37.8683 38.6005 37.6339 38.3661C37.3995 38.1317 37.0815 38 36.75 38H34.25C33.9185 38 33.6005 38.1317 33.3661 38.3661C33.1317 38.6005 33 38.9185 33 39.25Z" fill="#393736"/>
</svg>
