<svg width="76" height="76" viewBox="0 0 76 76" fill="none" xmlns="http://www.w3.org/2000/svg">
<rect x="1.5" y="1.5" width="73" height="73" fill="white" stroke="#393736" stroke-width="3"/>
<path fill-rule="evenodd" clip-rule="evenodd" d="M28.4031 8.00279C25.9835 8.001 23.6261 8.76949 21.6724 10.197C19.7187 11.6244 18.2701 13.6368 17.5364 15.9425C16.8028 18.2482 16.8221 20.7276 17.5917 23.0216C18.3613 25.3156 19.8411 27.305 21.8169 28.7018C20.3297 29.7544 19.1167 31.1485 18.28 32.7671C17.4433 34.3856 17.0072 36.1814 17.0084 38.0034C17.0084 41.8435 18.9089 45.2426 21.8225 47.305C20.2264 48.4348 18.9479 49.9564 18.1101 51.7233C17.2722 53.4903 16.9032 55.4431 17.0386 57.3939C17.1739 59.3448 17.809 61.2279 18.8828 62.8623C19.9566 64.4966 21.4329 65.8271 23.1698 66.7257C24.9066 67.6243 26.8455 68.0608 28.7998 67.9932C30.7542 67.9256 32.6582 67.3561 34.3288 66.3397C35.9994 65.3232 37.3803 63.8939 38.3386 62.1893C39.2969 60.4846 39.8003 58.5621 39.8005 56.6066V46.8278C40.986 47.7881 42.3522 48.5007 43.8182 48.9232C45.2842 49.3456 46.8201 49.4694 48.3348 49.2871C49.8496 49.1048 51.3122 48.6202 52.6362 47.862C53.9601 47.1038 55.1182 46.0874 56.042 44.8732C56.9657 43.659 57.6362 42.2717 58.0137 40.7934C58.3912 39.3152 58.468 37.7763 58.2396 36.2678C58.0111 34.7594 57.4821 33.3121 56.6838 32.012C55.8855 30.7119 54.8343 29.5853 53.5924 28.699C55.5682 27.3023 57.0481 25.3128 57.8176 23.0188C58.5872 20.7248 58.6066 18.2454 57.8729 15.9397C57.1393 13.634 55.6907 11.6216 53.737 10.1942C51.7833 8.7667 49.4259 7.99821 47.0063 8L28.4031 8.00279ZM35.6116 45.2119H28.4031C27.4565 45.2119 26.5191 45.0255 25.6445 44.6632C24.7699 44.3009 23.9753 43.77 23.3059 43.1006C22.6365 42.4312 22.1056 41.6366 21.7433 40.762C21.381 39.8874 21.1946 38.95 21.1946 38.0034C21.1946 37.0568 21.381 36.1194 21.7433 35.2448C22.1056 34.3702 22.6365 33.5756 23.3059 32.9062C23.9753 32.2368 24.7699 31.7059 25.6445 31.3436C26.5191 30.9813 27.4565 30.7949 28.4031 30.7949H35.6116V45.2119ZM28.4031 26.6087H35.6116V12.1889H28.4031C26.4909 12.1889 24.657 12.9485 23.3049 14.3007C21.9528 15.6528 21.1932 17.4866 21.1932 19.3988C21.1932 21.311 21.9528 23.1449 23.3049 24.497C24.657 25.8491 26.4909 26.6087 28.4031 26.6087ZM54.2176 19.3974C54.2183 21.3083 53.4603 23.1413 52.1102 24.4935C50.7601 25.8457 48.9283 26.6065 47.0174 26.6087H39.7977V12.1889H47.009C47.9557 12.1889 48.8931 12.3754 49.7676 12.7376C50.6422 13.0999 51.4369 13.6309 52.1062 14.3003C52.7756 14.9696 53.3066 15.7643 53.6688 16.6389C54.0311 17.5134 54.2176 18.4508 54.2176 19.3974ZM39.7977 37.995C39.8 36.0861 40.5593 34.256 41.9091 32.9062C43.2589 31.5564 45.089 30.7971 46.9979 30.7949H47.0146C48.4396 30.7965 49.8322 31.2205 51.0163 32.0132C52.2005 32.8059 53.1231 33.9318 53.6677 35.2487C54.2122 36.5655 54.3543 38.0142 54.0759 39.4118C53.7974 40.8093 53.1111 42.093 52.1034 43.1006C51.0958 44.1082 49.8122 44.7946 48.4146 45.073C47.0171 45.3514 45.5684 45.2094 44.2515 44.6648C42.9347 44.1202 41.8088 43.1976 41.0161 42.0135C40.2234 40.8293 39.7994 39.4368 39.7977 38.0118V37.995ZM28.4031 49.398C26.9775 49.398 25.5839 49.8207 24.3985 50.6127C23.2132 51.4047 22.2892 52.5303 21.7436 53.8473C21.1979 55.1644 21.055 56.6136 21.3329 58.0118C21.6108 59.4101 22.2971 60.6945 23.3049 61.7028C24.3128 62.711 25.5969 63.3978 26.9951 63.6762C28.3932 63.9547 29.8425 63.8123 31.1597 63.2672C32.477 62.722 33.603 61.7985 34.3954 60.6134C35.1878 59.4284 35.6111 58.0349 35.6116 56.6093V49.398H28.4031Z" fill="#393736"/>
</svg>
