<svg width="142" height="29" viewBox="0 0 142 29" fill="none" xmlns="http://www.w3.org/2000/svg">
<path d="M18.0857 5.77022V14.9716C18.0857 16.6074 17.792 18.0127 17.2046 19.1875C16.6247 20.3623 15.7882 21.2657 14.6952 21.8977C13.6096 22.5223 12.3047 22.8346 10.7804 22.8346C9.26357 22.8346 7.95865 22.5223 6.86564 21.8977C5.77262 21.2657 4.93242 20.3623 4.34502 19.1875C3.76505 18.0127 3.47507 16.6074 3.47507 14.9716V5.77022H6.91025V14.5478C6.91025 15.7151 7.05524 16.6892 7.34522 17.4699C7.64264 18.2506 8.07762 18.8418 8.65015 19.2433C9.22268 19.6373 9.93276 19.8344 10.7804 19.8344C11.628 19.8344 12.3381 19.6373 12.9107 19.2433C13.4832 18.8418 13.9144 18.2506 14.2044 17.4699C14.5018 16.6892 14.6506 15.7151 14.6506 14.5478V5.77022H18.0857ZM34.94 22.5H30.6237L26.3186 16.455L22.0023 22.5H17.9314L24.3333 13.912L18.4333 5.77022H22.7496L26.5528 11.1238L30.2668 5.77022H34.4716L28.5492 13.8228L34.94 22.5ZM36.5924 22.7231H33.5699L40.6968 5.54716H43.7082L36.5924 22.7231ZM57.9972 5.77022V14.9716C57.9972 16.6074 57.7035 18.0127 57.1161 19.1875C56.5361 20.3623 55.6996 21.2657 54.6066 21.8977C53.521 22.5223 52.2161 22.8346 50.6918 22.8346C49.175 22.8346 47.8701 22.5223 46.7771 21.8977C45.6841 21.2657 44.8439 20.3623 44.2565 19.1875C43.6765 18.0127 43.3865 16.6074 43.3865 14.9716V5.77022H46.8217V14.5478C46.8217 15.7151 46.9667 16.6892 47.2567 17.4699C47.5541 18.2506 47.9891 18.8418 48.5616 19.2433C49.1341 19.6373 49.8442 19.8344 50.6918 19.8344C51.5395 19.8344 52.2496 19.6373 52.8221 19.2433C53.3946 18.8418 53.8259 18.2506 54.1159 17.4699C54.4133 16.6892 54.562 15.7151 54.562 14.5478V5.77022H57.9972ZM58.8912 22.5V5.77022H62.3264V22.5H58.8912Z" fill="#FF651D"/>
<rect x="1.05729" y="1.55729" width="65.5521" height="23.2604" stroke="#FF651D" stroke-width="2.11458"/>
<path d="M87.4384 21H83.8998V12.6718L81.2995 18.7482H78.6902L76.0988 12.6897V21H72.5602V7.59623H77.0281L79.9948 14.7628L82.9705 7.59623H87.4384V21ZM94.5177 21H90.8094L96.0458 7.59623H99.7541L104.982 21H101.273L100.406 18.6141H95.3845L94.5177 21ZM96.5104 15.5313H99.2895L97.8955 11.7067L96.5104 15.5313ZM120.872 21H116.708L111.882 13.0471V21H108.344V7.59623H112.508L117.333 15.5759V7.59623H120.872V21ZM137.048 7.59623V14.9504C137.048 16.261 136.806 17.3899 136.324 18.3371C135.847 19.2784 135.159 20.0022 134.26 20.5085C133.366 21.0149 132.294 21.2681 131.043 21.2681C129.798 21.2681 128.725 21.0149 127.826 20.5085C126.926 20.0022 126.235 19.2784 125.753 18.3371C125.276 17.3899 125.038 16.261 125.038 14.9504V7.59623H128.577V14.4679C128.577 15.3198 128.663 16.0198 128.836 16.5678C129.014 17.1159 129.285 17.524 129.649 17.792C130.012 18.0541 130.477 18.1852 131.043 18.1852C131.609 18.1852 132.073 18.0541 132.437 17.792C132.8 17.524 133.068 17.1159 133.241 16.5678C133.42 16.0198 133.509 15.3198 133.509 14.4679V7.59623H137.048Z" fill="#393736"/>
</svg>
