<svg width="76" height="76" viewBox="0 0 76 76" fill="none" xmlns="http://www.w3.org/2000/svg">
<rect x="1.5" y="1.5" width="73" height="73" fill="white" stroke="#393736" stroke-width="3"/>
<path d="M23.0021 13.8929C23.002 13.5985 22.9211 13.3098 22.7682 13.0582C22.6153 12.8067 22.3962 12.6019 22.1348 12.4664C21.8735 12.3309 21.5799 12.2697 21.2862 12.2896C20.9925 12.3095 20.7099 12.4098 20.4692 12.5793C16.9485 15.0586 14.8614 17.2229 13.6785 19.3143C12.4678 21.4572 12.2878 23.3793 12.2878 25.1429C12.2878 27.5643 13.4342 29.7158 15.2128 31.0872C14.4476 31.8055 13.8417 32.6764 13.4342 33.6436C12.4635 35.8615 12.2856 38.5786 12.2856 40.7579C12.2856 44.3215 12.8535 49.7793 13.8928 54.3672C14.4114 56.6536 15.0671 58.8201 15.8749 60.4529C16.2778 61.2651 16.7599 62.0301 17.3492 62.6129C17.9428 63.2022 18.7635 63.7143 19.7921 63.7143C20.8206 63.7143 21.6392 63.2022 22.2349 62.6129C22.8221 62.0301 23.3042 61.2629 23.7049 60.4508C24.5128 58.82 25.1664 56.6536 25.6828 54.365C26.7199 49.7793 27.2856 44.3215 27.2856 40.7579C27.2856 38.5786 27.1121 35.8636 26.1435 33.6436C25.7363 32.6757 25.1304 31.804 24.3649 31.0851C25.2744 30.3844 26.0109 29.4843 26.5177 28.454C27.0244 27.4238 27.2879 26.291 27.2878 25.1429C27.2878 22.7301 26.1049 21.0565 25.1556 19.7129L24.8599 19.2908C23.8656 17.855 23.0021 16.4 23.0021 13.8929ZM19.7321 32.6429H19.8478C20.8099 32.6536 21.4656 32.9043 21.9456 33.2515C22.4499 33.6129 22.8671 34.1729 23.1971 34.9315C23.8828 36.5022 24.0714 38.6472 24.0714 40.7601C24.0714 44.0751 23.5356 49.2929 22.5499 53.6601C22.0528 55.8501 21.4656 57.7315 20.8249 59.0258C20.5035 59.6772 20.2078 60.0972 19.9699 60.3308C19.9163 60.3871 19.8566 60.4374 19.7921 60.4808C19.7268 60.4375 19.6664 60.3872 19.6121 60.3308C19.3742 60.0951 19.0785 59.6772 18.7549 59.0236C18.1121 57.7293 17.5249 55.8479 17.0278 53.6579C16.0399 49.2929 15.4999 44.0751 15.4999 40.7579C15.4999 38.6493 15.6906 36.5043 16.3785 34.9336C16.7099 34.1765 17.1285 33.6165 17.6342 33.2536C18.1142 32.9043 18.7721 32.6536 19.7321 32.6429ZM19.8456 29.4286H19.7342C18.6065 29.4151 17.5296 28.9576 16.7369 28.1553C15.9443 27.3531 15.4998 26.2707 15.4999 25.1429C15.4999 23.6515 15.6478 22.3593 16.4749 20.8979C17.1178 19.7579 18.2192 18.4379 20.1392 16.8565C20.5999 18.6693 21.4378 19.9958 22.2135 21.1208L22.4706 21.4872C23.4799 22.9401 24.0714 23.7929 24.0714 25.1429C24.0715 26.2696 23.6279 27.351 22.8366 28.1531C22.0454 28.9552 20.9722 29.4134 19.8456 29.4286ZM34.7856 17.6429C32.1928 17.6429 29.7799 18.41 27.7592 19.73C27.4549 19.2415 27.1528 18.8215 26.8999 18.4658L26.6214 18.0715C26.3901 17.7439 26.1721 17.4072 25.9678 17.0622C28.3156 15.5216 31.0261 14.623 33.8292 14.4561C36.6324 14.2891 39.4304 14.8595 41.9445 16.1105C44.4586 17.3614 46.601 19.2493 48.1583 21.586C49.7157 23.9227 50.6336 26.6267 50.8206 29.4286H55.6785C57.8093 29.4286 59.8529 30.2749 61.3599 31.7815C62.8668 33.288 63.7137 35.3314 63.7142 37.4622V51.3908C63.7145 52.4462 63.5069 53.4914 63.1032 54.4666C62.6994 55.4417 62.1076 56.3278 61.3614 57.0743C60.6152 57.8207 59.7292 58.4128 58.7541 58.8167C57.7791 59.2207 56.734 59.4286 55.6785 59.4286H41.7499C39.6187 59.4286 37.5748 58.582 36.0678 57.075C34.5608 55.568 33.7142 53.5241 33.7142 51.3929V46.5372C32.1676 46.4349 30.644 46.1094 29.1906 45.5708C29.2978 44.3708 29.3685 43.2265 29.4049 42.1808C30.7335 42.7936 32.1864 43.1879 33.7142 43.3143V37.4643C33.7142 35.3331 34.5608 33.2892 36.0678 31.7822C37.5748 30.2752 39.6187 29.4286 41.7499 29.4286H47.5999C47.3312 26.2151 45.8647 23.2198 43.4912 21.0368C41.1176 18.8538 38.0104 17.6424 34.7856 17.6429ZM50.7156 32.6429C50.245 36.1339 48.6409 39.3737 46.1501 41.8645C43.6593 44.3554 40.4195 45.9594 36.9285 46.4301V51.3929C36.9285 52.6716 37.4365 53.898 38.3407 54.8022C39.2449 55.7064 40.4712 56.2143 41.7499 56.2143H55.6785C56.9572 56.2143 58.1836 55.7064 59.0878 54.8022C59.992 53.898 60.4999 52.6716 60.4999 51.3929V37.4643C60.4999 36.1856 59.992 34.9593 59.0878 34.0551C58.1836 33.1509 56.9572 32.6429 55.6785 32.6429H50.7156ZM47.4649 32.6429H41.7499C40.4712 32.6429 39.2449 33.1509 38.3407 34.0551C37.4365 34.9593 36.9285 36.1856 36.9285 37.4643V43.1793C39.5608 42.7332 41.9891 41.4793 43.877 39.5914C45.7649 37.7035 47.0188 35.2752 47.4649 32.6429Z" fill="#393736"/>
</svg>
