<svg width="76" height="76" viewBox="0 0 76 76" fill="none" xmlns="http://www.w3.org/2000/svg">
<rect x="1.5" y="1.5" width="73" height="73" fill="white" stroke="#393736" stroke-width="3"/>
<path d="M10.4998 59.5V54.5H65.4998V59.5H10.4998ZM17.9998 52C16.6248 52 15.4481 51.5108 14.4698 50.5325C13.4914 49.5542 13.0014 48.3767 12.9998 47V19.5C12.9998 18.125 13.4898 16.9483 14.4698 15.97C15.4498 14.9917 16.6264 14.5017 17.9998 14.5H57.9998C59.3748 14.5 60.5523 14.99 61.5323 15.97C62.5123 16.95 63.0014 18.1267 62.9998 19.5V47C62.9998 48.375 62.5106 49.5525 61.5323 50.5325C60.5539 51.5125 59.3764 52.0017 57.9998 52H17.9998ZM17.9998 47H57.9998V19.5H17.9998V47Z" fill="#393736"/>
</svg>
